<svg version="1.1" viewBox="0.0 0.0 96.0 96.0" fill="none" stroke="none" stroke-linecap="square" stroke-miterlimit="10" xmlns:xlink="http://www.w3.org/1999/xlink" xmlns="http://www.w3.org/2000/svg"><clipPath id="p.0"><path d="m0 0l96.0 0l0 96.0l-96.0 0l0 -96.0z" clip-rule="nonzero"/></clipPath><g clip-path="url(#p.0)"><path fill="#000000" fill-opacity="0.0" d="m0 0l96.0 0l0 96.0l-96.0 0z" fill-rule="evenodd"/><path fill="#ffff00" d="m0 16.00032l0 0c0 -8.836733 7.163587 -16.00032 16.00032 -16.00032l63.99936 0l0 0c4.2435455 0 8.313293 1.6857432 11.313934 4.686385c3.0006409 3.0006423 4.686386 7.070386 4.686386 11.313935l0 63.99936c0 8.836731 -7.1635895 16.00032 -16.00032 16.00032l-63.99936 0c-8.836733 0 -16.00032 -7.1635895 -16.00032 -16.00032z" fill-rule="evenodd"/><path stroke="#ffff00" stroke-width="1.0" stroke-linejoin="round" stroke-linecap="butt" d="m0 16.00032l0 0c0 -8.836733 7.163587 -16.00032 16.00032 -16.00032l63.99936 0l0 0c4.2435455 0 8.313293 1.6857432 11.313934 4.686385c3.0006409 3.0006423 4.686386 7.070386 4.686386 11.313935l0 63.99936c0 8.836731 -7.1635895 16.00032 -16.00032 16.00032l-63.99936 0c-8.836733 0 -16.00032 -7.1635895 -16.00032 -16.00032z" fill-rule="evenodd"/><path fill="#000000" d="m30.15748 48.0l0 0c0 -10.071587 7.988367 -18.236221 17.84252 -18.236221l0 0c4.732132 0 9.270447 1.9213123 12.616566 5.3412666c3.3461227 3.4199524 5.225956 8.058407 5.225956 12.894955l0 0c0 10.071587 -7.988369 18.236221 -17.842522 18.236221l0 0c-9.854153 0 -17.84252 -8.164635 -17.84252 -18.236221z" fill-rule="evenodd"/><path stroke="#666666" stroke-width="1.0" stroke-linejoin="round" stroke-linecap="butt" d="m30.15748 48.0l0 0c0 -10.071587 7.988367 -18.236221 17.84252 -18.236221l0 0c4.732132 0 9.270447 1.9213123 12.616566 5.3412666c3.3461227 3.4199524 5.225956 8.058407 5.225956 12.894955l0 0c0 10.071587 -7.988369 18.236221 -17.842522 18.236221l0 0c-9.854153 0 -17.84252 -8.164635 -17.84252 -18.236221z" fill-rule="evenodd"/></g></svg>