<svg version="1.1" viewBox="0.0 0.0 96.0 96.0" fill="none" stroke="none" stroke-linecap="square" stroke-miterlimit="10" xmlns:xlink="http://www.w3.org/1999/xlink" xmlns="http://www.w3.org/2000/svg"><clipPath id="p.0"><path d="m0 0l96.0 0l0 96.0l-96.0 0l0 -96.0z" clip-rule="nonzero"/></clipPath><g clip-path="url(#p.0)"><path fill="#000000" fill-opacity="0.0" d="m0 0l96.0 0l0 96.0l-96.0 0z" fill-rule="evenodd"/><path fill="#9900ff" d="m0 16.00032l0 0c0 -8.836733 7.163587 -16.00032 16.00032 -16.00032l63.99936 0l0 0c4.2435455 0 8.313293 1.6857432 11.313934 4.686385c3.0006409 3.0006423 4.686386 7.070386 4.686386 11.313935l0 63.99936c0 8.836731 -7.1635895 16.00032 -16.00032 16.00032l-63.99936 0c-8.836733 0 -16.00032 -7.1635895 -16.00032 -16.00032z" fill-rule="evenodd"/><path stroke="#9900ff" stroke-width="1.0" stroke-linejoin="round" stroke-linecap="butt" d="m0 16.00032l0 0c0 -8.836733 7.163587 -16.00032 16.00032 -16.00032l63.99936 0l0 0c4.2435455 0 8.313293 1.6857432 11.313934 4.686385c3.0006409 3.0006423 4.686386 7.070386 4.686386 11.313935l0 63.99936c0 8.836731 -7.1635895 16.00032 -16.00032 16.00032l-63.99936 0c-8.836733 0 -16.00032 -7.1635895 -16.00032 -16.00032z" fill-rule="evenodd"/></g></svg>