<svg version="1.1" viewBox="0.0 0.0 96.0 96.0" fill="none" stroke="none" stroke-linecap="square" stroke-miterlimit="10" xmlns:xlink="http://www.w3.org/1999/xlink" xmlns="http://www.w3.org/2000/svg"><clipPath id="p.0"><path d="m0 0l96.0 0l0 96.0l-96.0 0l0 -96.0z" clip-rule="nonzero"/></clipPath><g clip-path="url(#p.0)"><path fill="#000000" fill-opacity="0.0" d="m0 0l96.0 0l0 96.0l-96.0 0z" fill-rule="evenodd"/><path fill="#3172e0" d="m0 16.00032l0 0c0 -8.836733 7.163587 -16.00032 16.00032 -16.00032l63.99936 0l0 0c4.2435455 0 8.313293 1.6857432 11.313934 4.686385c3.0006409 3.0006423 4.686386 7.070386 4.686386 11.313935l0 63.99936c0 8.836731 -7.1635895 16.00032 -16.00032 16.00032l-63.99936 0c-8.836733 0 -16.00032 -7.1635895 -16.00032 -16.00032z" fill-rule="evenodd"/><path fill="#434343" d="m87.85833 6.409462l1.7322845 1.7322836l0 0c1.6998901 1.6998911 2.6548843 4.005439 2.6548843 6.4094486c0 2.4040098 -0.9549942 4.7095575 -2.6548843 6.4094496l-3.7787552 3.7787533c-1.4528885 1.4528923 -3.8084946 1.4528923 -5.261383 0l-9.289795 -9.289792c-1.4528961 -1.4528923 -1.4528961 -3.8084965 0 -5.261389l3.7787552 -3.7787542l0 0c3.5398407 -3.539841 9.279053 -3.539841 12.818893 0z" fill-rule="evenodd"/><path stroke="#999999" stroke-width="1.0" stroke-linejoin="round" stroke-linecap="butt" d="m87.85833 6.409462l1.7322845 1.7322836l0 0c1.6998901 1.6998911 2.6548843 4.005439 2.6548843 6.4094486c0 2.4040098 -0.9549942 4.7095575 -2.6548843 6.4094496l-3.7787552 3.7787533c-1.4528885 1.4528923 -3.8084946 1.4528923 -5.261383 0l-9.289795 -9.289792c-1.4528961 -1.4528923 -1.4528961 -3.8084965 0 -5.261389l3.7787552 -3.7787542l0 0c3.5398407 -3.539841 9.279053 -3.539841 12.818893 0z" fill-rule="evenodd"/><path fill="#ffffff" d="m80.139626 7.663239l0 0c0.5305481 -0.5305519 1.3907471 -0.5305519 1.9212952 0l6.2676773 6.267678c0.25478363 0.25477982 0.3979187 0.6003361 0.3979187 0.9606495c0 0.36031342 -0.14313507 0.7058687 -0.3979187 0.96064854l-3.842476 3.8424816c-0.5305557 0.5305519 -1.3907471 0.5305519 -1.9213028 0l-6.2676773 -6.2676783c-0.5305481 -0.5305519 -0.5305481 -1.3907461 0 -1.921298z" fill-rule="evenodd"/><path stroke="#d9d9d9" stroke-width="1.0" stroke-linejoin="round" stroke-linecap="butt" d="m80.139626 7.663239l0 0c0.5305481 -0.5305519 1.3907471 -0.5305519 1.9212952 0l6.2676773 6.267678c0.25478363 0.25477982 0.3979187 0.6003361 0.3979187 0.9606495c0 0.36031342 -0.14313507 0.7058687 -0.3979187 0.96064854l-3.842476 3.8424816c-0.5305557 0.5305519 -1.3907471 0.5305519 -1.9213028 0l-6.2676773 -6.2676783c-0.5305481 -0.5305519 -0.5305481 -1.3907461 0 -1.921298z" fill-rule="evenodd"/><path fill="#434343" d="m89.590614 87.858284l-1.7322845 1.7322769l0 0c-1.6998901 1.6998978 -4.0054398 2.6548843 -6.4094467 2.6548843c-2.404007 0 -4.7095566 -0.9549866 -6.4094467 -2.6548843l-3.7787552 -3.7787476c-1.4528961 -1.4528961 -1.4528961 -3.8085022 0 -5.2613907l9.289795 -9.289795c1.4528885 -1.4528885 3.8084946 -1.4528885 5.261383 0l3.7787552 3.7787552l0 0c3.5398407 3.5398407 3.5398407 9.27906 0 12.818901z" fill-rule="evenodd"/><path stroke="#999999" stroke-width="1.0" stroke-linejoin="round" stroke-linecap="butt" d="m89.590614 87.858284l-1.7322845 1.7322769l0 0c-1.6998901 1.6998978 -4.0054398 2.6548843 -6.4094467 2.6548843c-2.404007 0 -4.7095566 -0.9549866 -6.4094467 -2.6548843l-3.7787552 -3.7787476c-1.4528961 -1.4528961 -1.4528961 -3.8085022 0 -5.2613907l9.289795 -9.289795c1.4528885 -1.4528885 3.8084946 -1.4528885 5.261383 0l3.7787552 3.7787552l0 0c3.5398407 3.5398407 3.5398407 9.27906 0 12.818901z" fill-rule="evenodd"/><path fill="#ffffff" d="m88.3498 80.14478l0 0c0.5305481 0.5305481 0.5305481 1.3907471 0 1.9212952l-6.299179 6.299179c-0.254776 0.254776 -0.60033417 0.39791107 -0.9606476 0.39791107c-0.36031342 0 -0.7058716 -0.14313507 -0.9606476 -0.39791107l-3.8424835 -3.8424835c-0.5305481 -0.5305557 -0.5305481 -1.3907471 0 -1.9213028l6.2991714 -6.2991714c0.5305557 -0.5305481 1.3907471 -0.5305481 1.9213028 0z" fill-rule="evenodd"/><path stroke="#d9d9d9" stroke-width="1.0" stroke-linejoin="round" stroke-linecap="butt" d="m88.3498 80.14478l0 0c0.5305481 0.5305481 0.5305481 1.3907471 0 1.9212952l-6.299179 6.299179c-0.254776 0.254776 -0.60033417 0.39791107 -0.9606476 0.39791107c-0.36031342 0 -0.7058716 -0.14313507 -0.9606476 -0.39791107l-3.8424835 -3.8424835c-0.5305481 -0.5305557 -0.5305481 -1.3907471 0 -1.9213028l6.2991714 -6.2991714c0.5305557 -0.5305481 1.3907471 -0.5305481 1.9213028 0z" fill-rule="evenodd"/><path fill="#434343" d="m8.141797 89.59056l-1.7322836 -1.7322769l0 0c-1.6998916 -1.6998978 -2.6548808 -4.0054398 -2.6548808 -6.4094543c0 -2.404007 0.9549892 -4.7095566 2.6548808 -6.4094467l3.7787542 -3.7787552c1.4528923 -1.4528885 3.8084965 -1.4528885 5.261389 0l9.289792 9.289795c1.4528923 1.4528885 1.4528923 3.8084946 0 5.2613907l-3.7787533 3.7787476l0 0c-3.5398407 3.5398407 -9.2790575 3.5398407 -12.818898 0z" fill-rule="evenodd"/><path stroke="#999999" stroke-width="1.0" stroke-linejoin="round" stroke-linecap="butt" d="m8.141797 89.59056l-1.7322836 -1.7322769l0 0c-1.6998916 -1.6998978 -2.6548808 -4.0054398 -2.6548808 -6.4094543c0 -2.404007 0.9549892 -4.7095566 2.6548808 -6.4094467l3.7787542 -3.7787552c1.4528923 -1.4528885 3.8084965 -1.4528885 5.261389 0l9.289792 9.289795c1.4528923 1.4528885 1.4528923 3.8084946 0 5.2613907l-3.7787533 3.7787476l0 0c-3.5398407 3.5398407 -9.2790575 3.5398407 -12.818898 0z" fill-rule="evenodd"/><path fill="#ffffff" d="m11.511659 76.29412l0 0c0.5305519 -0.5305557 1.3907471 -0.5305557 1.921299 0l6.2676783 6.2676773c0.25477982 0.254776 0.39791298 0.60033417 0.39791298 0.9606476c0 0.36031342 -0.14313316 0.7058716 -0.39791298 0.9606476l-3.8424816 3.8424835c-0.5305519 0.5305481 -1.3907461 0.5305481 -1.921298 0l-6.2676787 -6.2676773c-0.53055143 -0.5305557 -0.53055143 -1.3907471 0 -1.9213028z" fill-rule="evenodd"/><path stroke="#d9d9d9" stroke-width="1.0" stroke-linejoin="round" stroke-linecap="butt" d="m11.511659 76.29412l0 0c0.5305519 -0.5305557 1.3907471 -0.5305557 1.921299 0l6.2676783 6.2676773c0.25477982 0.254776 0.39791298 0.60033417 0.39791298 0.9606476c0 0.36031342 -0.14313316 0.7058716 -0.39791298 0.9606476l-3.8424816 3.8424835c-0.5305519 0.5305481 -1.3907461 0.5305481 -1.921298 0l-6.2676787 -6.2676773c-0.53055143 -0.5305557 -0.53055143 -1.3907471 0 -1.9213028z" fill-rule="evenodd"/><path fill="#434343" d="m6.4095135 8.141746l1.7322836 -1.7322836l0 0c1.6998911 -1.6998916 4.005439 -2.6548808 6.4094486 -2.6548808c2.4040098 0 4.7095575 0.9549892 6.4094496 2.6548808l3.7787533 3.7787542c1.4528923 1.4528923 1.4528923 3.8084965 0 5.261389l-9.289792 9.289792c-1.4528923 1.4528923 -3.8084965 1.4528923 -5.261389 0l-3.7787542 -3.7787533l0 0c-3.539841 -3.5398407 -3.539841 -9.2790575 0 -12.818898z" fill-rule="evenodd"/><path stroke="#999999" stroke-width="1.0" stroke-linejoin="round" stroke-linecap="butt" d="m6.4095135 8.141746l1.7322836 -1.7322836l0 0c1.6998911 -1.6998916 4.005439 -2.6548808 6.4094486 -2.6548808c2.4040098 0 4.7095575 0.9549892 6.4094496 2.6548808l3.7787533 3.7787542c1.4528923 1.4528923 1.4528923 3.8084965 0 5.261389l-9.289792 9.289792c-1.4528923 1.4528923 -3.8084965 1.4528923 -5.261389 0l-3.7787542 -3.7787533l0 0c-3.539841 -3.5398407 -3.539841 -9.2790575 0 -12.818898z" fill-rule="evenodd"/><path fill="#ffffff" d="m19.708431 11.515227l0 0c0.5305519 0.5305519 0.5305519 1.3907461 0 1.921298l-6.2676773 6.2676773c-0.25477982 0.25477982 -0.6003361 0.3979149 -0.9606495 0.3979149c-0.36031342 0 -0.7058687 -0.14313507 -0.96064854 -0.3979149l-3.8424816 -3.8424807c-0.5305519 -0.5305519 -0.5305519 -1.3907461 0 -1.921298l6.2676783 -6.2676783c0.5305519 -0.5305519 1.3907461 -0.5305519 1.921298 0z" fill-rule="evenodd"/><path stroke="#d9d9d9" stroke-width="1.0" stroke-linejoin="round" stroke-linecap="butt" d="m19.708431 11.515227l0 0c0.5305519 0.5305519 0.5305519 1.3907461 0 1.921298l-6.2676773 6.2676773c-0.25477982 0.25477982 -0.6003361 0.3979149 -0.9606495 0.3979149c-0.36031342 0 -0.7058687 -0.14313507 -0.96064854 -0.3979149l-3.8424816 -3.8424807c-0.5305519 -0.5305519 -0.5305519 -1.3907461 0 -1.921298l6.2676783 -6.2676783c0.5305519 -0.5305519 1.3907461 -0.5305519 1.921298 0z" fill-rule="evenodd"/></g></svg>