<svg version="1.1" viewBox="0.0 0.0 96.0 96.0" fill="none" stroke="none" stroke-linecap="square" stroke-miterlimit="10" xmlns:xlink="http://www.w3.org/1999/xlink" xmlns="http://www.w3.org/2000/svg"><clipPath id="p.0"><path d="m0 0l96.0 0l0 96.0l-96.0 0l0 -96.0z" clip-rule="nonzero"/></clipPath><g clip-path="url(#p.0)"><path fill="#000000" fill-opacity="0.0" d="m0 0l96.0 0l0 96.0l-96.0 0z" fill-rule="evenodd"/><path fill="#3172e0" d="m0 16.00032l0 0c0 -8.836733 7.163587 -16.00032 16.00032 -16.00032l63.99936 0l0 0c4.2435455 0 8.313293 1.6857432 11.313934 4.686385c3.0006409 3.0006423 4.686386 7.070386 4.686386 11.313935l0 63.99936c0 8.836731 -7.1635895 16.00032 -16.00032 16.00032l-63.99936 0c-8.836733 0 -16.00032 -7.1635895 -16.00032 -16.00032z" fill-rule="evenodd"/><path fill="#d9d9d9" d="m6.288714 10.131267l0 0c0 -0.90744686 0.735631 -1.6430779 1.6430774 -1.6430779l6.572113 0l0 0c0.435771 0 0.85369396 0.17311001 1.1618309 0.48124695c0.30813694 0.308136 0.48124695 0.7260599 0.48124695 1.1618309l0 18.477623c0 0.9074478 -0.735631 1.6430779 -1.6430779 1.6430779l-6.572113 0c-0.9074464 0 -1.6430774 -0.73563004 -1.6430774 -1.6430779z" fill-rule="evenodd"/><path stroke="#666666" stroke-width="1.0" stroke-linejoin="round" stroke-linecap="butt" d="m6.288714 10.131267l0 0c0 -0.90744686 0.735631 -1.6430779 1.6430774 -1.6430779l6.572113 0l0 0c0.435771 0 0.85369396 0.17311001 1.1618309 0.48124695c0.30813694 0.308136 0.48124695 0.7260599 0.48124695 1.1618309l0 18.477623c0 0.9074478 -0.735631 1.6430779 -1.6430779 1.6430779l-6.572113 0c-0.9074464 0 -1.6430774 -0.73563004 -1.6430774 -1.6430779z" fill-rule="evenodd"/><path fill="#999999" d="m6.813648 11.062992l4.062992 0l0 0.88188934l-4.062992 0z" fill-rule="evenodd"/><path fill="#999999" d="m11.501312 13.12336l4.062992 0l0 0.88188934l-4.062992 0z" fill-rule="evenodd"/><path fill="#999999" d="m6.813648 15.750656l4.062992 0l0 0.88188934l-4.062992 0z" fill-rule="evenodd"/><path fill="#999999" d="m11.501312 17.874016l4.062992 0l0 0.88188934l-4.062992 0z" fill-rule="evenodd"/><path fill="#999999" d="m6.813648 20.43832l4.062992 0l0 0.88188934l-4.062992 0z" fill-rule="evenodd"/><path fill="#999999" d="m11.501312 22.624672l4.062992 0l0 0.88188934l-4.062992 0z" fill-rule="evenodd"/><path fill="#999999" d="m6.813648 25.125984l4.062992 0l0 0.88188934l-4.062992 0z" fill-rule="evenodd"/><path fill="#999999" d="m11.501312 27.375328l4.062992 0l0 0.88188934l-4.062992 0z" fill-rule="evenodd"/><path fill="#d9d9d9" d="m6.288714 38.76119l0 0c0 -0.9074478 0.735631 -1.6430779 1.6430774 -1.6430779l6.572113 0l0 0c0.435771 0 0.85369396 0.17310715 1.1618309 0.48124695c0.30813694 0.308136 0.48124695 0.72605896 0.48124695 1.1618309l0 18.477623c0 0.9074478 -0.735631 1.6430779 -1.6430779 1.6430779l-6.572113 0c-0.9074464 0 -1.6430774 -0.73563004 -1.6430774 -1.6430779z" fill-rule="evenodd"/><path stroke="#666666" stroke-width="1.0" stroke-linejoin="round" stroke-linecap="butt" d="m6.288714 38.76119l0 0c0 -0.9074478 0.735631 -1.6430779 1.6430774 -1.6430779l6.572113 0l0 0c0.435771 0 0.85369396 0.17310715 1.1618309 0.48124695c0.30813694 0.308136 0.48124695 0.72605896 0.48124695 1.1618309l0 18.477623c0 0.9074478 -0.735631 1.6430779 -1.6430779 1.6430779l-6.572113 0c-0.9074464 0 -1.6430774 -0.73563004 -1.6430774 -1.6430779z" fill-rule="evenodd"/><path fill="#999999" d="m6.813648 39.692913l4.062992 0l0 0.88188934l-4.062992 0z" fill-rule="evenodd"/><path fill="#999999" d="m11.501312 41.75328l4.062992 0l0 0.88188934l-4.062992 0z" fill-rule="evenodd"/><path fill="#999999" d="m6.813648 44.380577l4.062992 0l0 0.88188934l-4.062992 0z" fill-rule="evenodd"/><path fill="#999999" d="m11.501312 46.503937l4.062992 0l0 0.88188934l-4.062992 0z" fill-rule="evenodd"/><path fill="#999999" d="m6.813648 49.06824l4.062992 0l0 0.88188934l-4.062992 0z" fill-rule="evenodd"/><path fill="#999999" d="m11.501312 51.254593l4.062992 0l0 0.88188934l-4.062992 0z" fill-rule="evenodd"/><path fill="#999999" d="m6.813648 53.755905l4.062992 0l0 0.88188934l-4.062992 0z" fill-rule="evenodd"/><path fill="#999999" d="m11.501312 56.00525l4.062992 0l0 0.88188934l-4.062992 0z" fill-rule="evenodd"/><path fill="#d9d9d9" d="m6.288714 67.391106l0 0c0 -0.9074402 0.735631 -1.643074 1.6430774 -1.643074l6.572113 0l0 0c0.435771 0 0.85369396 0.17311096 1.1618309 0.48124695c0.30813694 0.308136 0.48124695 0.72605896 0.48124695 1.1618271l0 18.47763c0 0.9074402 -0.735631 1.643074 -1.6430779 1.643074l-6.572113 0c-0.9074464 0 -1.6430774 -0.73563385 -1.6430774 -1.643074z" fill-rule="evenodd"/><path stroke="#666666" stroke-width="1.0" stroke-linejoin="round" stroke-linecap="butt" d="m6.288714 67.391106l0 0c0 -0.9074402 0.735631 -1.643074 1.6430774 -1.643074l6.572113 0l0 0c0.435771 0 0.85369396 0.17311096 1.1618309 0.48124695c0.30813694 0.308136 0.48124695 0.72605896 0.48124695 1.1618271l0 18.47763c0 0.9074402 -0.735631 1.643074 -1.6430779 1.643074l-6.572113 0c-0.9074464 0 -1.6430774 -0.73563385 -1.6430774 -1.643074z" fill-rule="evenodd"/><path fill="#999999" d="m6.813648 68.32284l4.062992 0l0 0.88188934l-4.062992 0z" fill-rule="evenodd"/><path fill="#999999" d="m11.501312 70.3832l4.062992 0l0 0.88188934l-4.062992 0z" fill-rule="evenodd"/><path fill="#999999" d="m6.813648 73.0105l4.062992 0l0 0.88188934l-4.062992 0z" fill-rule="evenodd"/><path fill="#999999" d="m11.501312 75.13386l4.062992 0l0 0.88188934l-4.062992 0z" fill-rule="evenodd"/><path fill="#999999" d="m6.813648 77.698166l4.062992 0l0 0.88188934l-4.062992 0z" fill-rule="evenodd"/><path fill="#999999" d="m11.501312 79.884514l4.062992 0l0 0.88188934l-4.062992 0z" fill-rule="evenodd"/><path fill="#999999" d="m6.813648 82.385826l4.062992 0l0 0.88188934l-4.062992 0z" fill-rule="evenodd"/><path fill="#999999" d="m11.501312 84.63517l4.062992 0l0 0.88188934l-4.062992 0z" fill-rule="evenodd"/><path fill="#d9d9d9" d="m79.84252 10.131267l0 0c0 -0.90744686 0.7356262 -1.6430779 1.643074 -1.6430779l6.572113 0l0 0c0.43577576 0 0.85369873 0.17311001 1.1618347 0.48124695c0.308136 0.308136 0.48124695 0.7260599 0.48124695 1.1618309l0 18.477623c0 0.9074478 -0.73563385 1.6430779 -1.6430817 1.6430779l-6.572113 0c-0.9074478 0 -1.643074 -0.73563004 -1.643074 -1.6430779z" fill-rule="evenodd"/><path stroke="#666666" stroke-width="1.0" stroke-linejoin="round" stroke-linecap="butt" d="m79.84252 10.131267l0 0c0 -0.90744686 0.7356262 -1.6430779 1.643074 -1.6430779l6.572113 0l0 0c0.43577576 0 0.85369873 0.17311001 1.1618347 0.48124695c0.308136 0.308136 0.48124695 0.7260599 0.48124695 1.1618309l0 18.477623c0 0.9074478 -0.73563385 1.6430779 -1.6430817 1.6430779l-6.572113 0c-0.9074478 0 -1.643074 -0.73563004 -1.643074 -1.6430779z" fill-rule="evenodd"/><path fill="#999999" d="m80.367455 11.062992l4.0629883 0l0 0.88188934l-4.0629883 0z" fill-rule="evenodd"/><path fill="#999999" d="m85.055115 13.12336l4.062996 0l0 0.88188934l-4.062996 0z" fill-rule="evenodd"/><path fill="#999999" d="m80.367455 15.750656l4.0629883 0l0 0.88188934l-4.0629883 0z" fill-rule="evenodd"/><path fill="#999999" d="m85.055115 17.874016l4.062996 0l0 0.88188934l-4.062996 0z" fill-rule="evenodd"/><path fill="#999999" d="m80.367455 20.43832l4.0629883 0l0 0.88188934l-4.0629883 0z" fill-rule="evenodd"/><path fill="#999999" d="m85.055115 22.624672l4.062996 0l0 0.88188934l-4.062996 0z" fill-rule="evenodd"/><path fill="#999999" d="m80.367455 25.125984l4.0629883 0l0 0.88188934l-4.0629883 0z" fill-rule="evenodd"/><path fill="#999999" d="m85.055115 27.375328l4.062996 0l0 0.88188934l-4.062996 0z" fill-rule="evenodd"/><path fill="#d9d9d9" d="m79.84252 38.76119l0 0c0 -0.9074478 0.7356262 -1.6430779 1.643074 -1.6430779l6.572113 0l0 0c0.43577576 0 0.85369873 0.17310715 1.1618347 0.48124695c0.308136 0.308136 0.48124695 0.72605896 0.48124695 1.1618309l0 18.477623c0 0.9074478 -0.73563385 1.6430779 -1.6430817 1.6430779l-6.572113 0c-0.9074478 0 -1.643074 -0.73563004 -1.643074 -1.6430779z" fill-rule="evenodd"/><path stroke="#666666" stroke-width="1.0" stroke-linejoin="round" stroke-linecap="butt" d="m79.84252 38.76119l0 0c0 -0.9074478 0.7356262 -1.6430779 1.643074 -1.6430779l6.572113 0l0 0c0.43577576 0 0.85369873 0.17310715 1.1618347 0.48124695c0.308136 0.308136 0.48124695 0.72605896 0.48124695 1.1618309l0 18.477623c0 0.9074478 -0.73563385 1.6430779 -1.6430817 1.6430779l-6.572113 0c-0.9074478 0 -1.643074 -0.73563004 -1.643074 -1.6430779z" fill-rule="evenodd"/><path fill="#999999" d="m80.367455 39.692913l4.0629883 0l0 0.88188934l-4.0629883 0z" fill-rule="evenodd"/><path fill="#999999" d="m85.055115 41.75328l4.062996 0l0 0.88188934l-4.062996 0z" fill-rule="evenodd"/><path fill="#999999" d="m80.367455 44.380577l4.0629883 0l0 0.88188934l-4.0629883 0z" fill-rule="evenodd"/><path fill="#999999" d="m85.055115 46.503937l4.062996 0l0 0.88188934l-4.062996 0z" fill-rule="evenodd"/><path fill="#999999" d="m80.367455 49.06824l4.0629883 0l0 0.88188934l-4.0629883 0z" fill-rule="evenodd"/><path fill="#999999" d="m85.055115 51.254593l4.062996 0l0 0.88188934l-4.062996 0z" fill-rule="evenodd"/><path fill="#999999" d="m80.367455 53.755905l4.0629883 0l0 0.88188934l-4.0629883 0z" fill-rule="evenodd"/><path fill="#999999" d="m85.055115 56.00525l4.062996 0l0 0.88188934l-4.062996 0z" fill-rule="evenodd"/><path fill="#d9d9d9" d="m79.84252 67.391106l0 0c0 -0.9074402 0.7356262 -1.643074 1.643074 -1.643074l6.572113 0l0 0c0.43577576 0 0.85369873 0.17311096 1.1618347 0.48124695c0.308136 0.308136 0.48124695 0.72605896 0.48124695 1.1618271l0 18.47763c0 0.9074402 -0.73563385 1.643074 -1.6430817 1.643074l-6.572113 0c-0.9074478 0 -1.643074 -0.73563385 -1.643074 -1.643074z" fill-rule="evenodd"/><path stroke="#666666" stroke-width="1.0" stroke-linejoin="round" stroke-linecap="butt" d="m79.84252 67.391106l0 0c0 -0.9074402 0.7356262 -1.643074 1.643074 -1.643074l6.572113 0l0 0c0.43577576 0 0.85369873 0.17311096 1.1618347 0.48124695c0.308136 0.308136 0.48124695 0.72605896 0.48124695 1.1618271l0 18.47763c0 0.9074402 -0.73563385 1.643074 -1.6430817 1.643074l-6.572113 0c-0.9074478 0 -1.643074 -0.73563385 -1.643074 -1.643074z" fill-rule="evenodd"/><path fill="#999999" d="m80.367455 68.32284l4.0629883 0l0 0.88188934l-4.0629883 0z" fill-rule="evenodd"/><path fill="#999999" d="m85.055115 70.3832l4.062996 0l0 0.88188934l-4.062996 0z" fill-rule="evenodd"/><path fill="#999999" d="m80.367455 73.0105l4.0629883 0l0 0.88188934l-4.0629883 0z" fill-rule="evenodd"/><path fill="#999999" d="m85.055115 75.13386l4.062996 0l0 0.88188934l-4.062996 0z" fill-rule="evenodd"/><path fill="#999999" d="m80.367455 77.698166l4.0629883 0l0 0.88188934l-4.0629883 0z" fill-rule="evenodd"/><path fill="#999999" d="m85.055115 79.884514l4.062996 0l0 0.88188934l-4.062996 0z" fill-rule="evenodd"/><path fill="#999999" d="m80.367455 82.385826l4.0629883 0l0 0.88188934l-4.0629883 0z" fill-rule="evenodd"/><path fill="#999999" d="m85.055115 84.63517l4.062996 0l0 0.88188934l-4.062996 0z" fill-rule="evenodd"/></g></svg>