<svg width="60" height="60" viewBox="0 0 60 60" fill="none" xmlns="http://www.w3.org/2000/svg">
<g clip-path="url(#clip0_3_4)">
<rect x="5" y="5" width="50" height="50" fill="#222222"/>
<path fill-rule="evenodd" clip-rule="evenodd" d="M10 0C4.47715 0 0 4.47715 0 10V50C0 55.5228 4.47715 60 10 60H50C55.5228 60 60 55.5228 60 50V10C60 4.47715 55.5228 0 50 0H10ZM15 5C9.47715 5 5 9.47715 5 15V45C5 50.5228 9.47715 55 15 55H45C50.5228 55 55 50.5228 55 45V15C55 9.47715 50.5228 5 45 5H15Z" fill="#ED1C24"/>
<rect x="10" y="10" width="5" height="12" rx="1" fill="#D9D9D9"/>
<rect x="10" y="12" width="2" height="1" fill="#838383"/>
<rect x="13" y="14" width="2" height="1" fill="#838383"/>
<rect x="10" y="16" width="2" height="1" fill="#838383"/>
<rect x="13" y="18" width="2" height="1" fill="#838383"/>
<rect x="10" y="20" width="2" height="1" fill="#838383"/>
<rect x="10" y="24" width="5" height="12" rx="1" fill="#D9D9D9"/>
<rect x="10" y="26" width="2" height="1" fill="#838383"/>
<rect x="13" y="28" width="2" height="1" fill="#838383"/>
<rect x="10" y="30" width="2" height="1" fill="#838383"/>
<rect x="13" y="32" width="2" height="1" fill="#838383"/>
<rect x="10" y="34" width="2" height="1" fill="#838383"/>
<rect x="10" y="38" width="5" height="12" rx="1" fill="#D9D9D9"/>
<rect x="10" y="40" width="2" height="1" fill="#838383"/>
<rect x="13" y="42" width="2" height="1" fill="#838383"/>
<rect x="10" y="44" width="2" height="1" fill="#838383"/>
<rect x="13" y="46" width="2" height="1" fill="#838383"/>
<rect x="10" y="48" width="2" height="1" fill="#838383"/>
<rect x="45" y="10" width="5" height="12" rx="1" fill="#D9D9D9"/>
<rect x="45" y="12" width="2" height="1" fill="#838383"/>
<rect x="48" y="14" width="2" height="1" fill="#838383"/>
<rect x="45" y="16" width="2" height="1" fill="#838383"/>
<rect x="48" y="18" width="2" height="1" fill="#838383"/>
<rect x="45" y="20" width="2" height="1" fill="#838383"/>
<rect x="45" y="24" width="5" height="12" rx="1" fill="#D9D9D9"/>
<rect x="45" y="26" width="2" height="1" fill="#838383"/>
<rect x="48" y="28" width="2" height="1" fill="#838383"/>
<rect x="45" y="30" width="2" height="1" fill="#838383"/>
<rect x="48" y="32" width="2" height="1" fill="#838383"/>
<rect x="45" y="34" width="2" height="1" fill="#838383"/>
<rect x="45" y="38" width="5" height="12" rx="1" fill="#D9D9D9"/>
<rect x="45" y="40" width="2" height="1" fill="#838383"/>
<rect x="48" y="42" width="2" height="1" fill="#838383"/>
<rect x="45" y="44" width="2" height="1" fill="#838383"/>
<rect x="48" y="46" width="2" height="1" fill="#838383"/>
<rect x="45" y="48" width="2" height="1" fill="#838383"/>
</g>
<defs>
<clipPath id="clip0_3_4">
<rect width="60" height="60" fill="white"/>
</clipPath>
</defs>
</svg>
